<?xml version="1.0" encoding="UTF-8"?>
<svg id="Layer_2" data-name="Layer 2" xmlns="http://www.w3.org/2000/svg" width="592.35" height="101.42" viewBox="0 0 592.35 101.42">
  <defs>
    <style>
      .cls-1 {
        fill: #231f20;
      }
    </style>
  </defs>
  <g id="Layer_1-2" data-name="Layer 1">
    <g>
      <path class="cls-1" d="M0,88.8l10.14-13.52c5.59,3.77,14.56,7.67,23.14,7.67,5.98,0,10.27-2.73,10.27-6.37,0-4.81-10.01-5.33-13.78-5.98-9.75-1.69-28.34-4.55-28.34-22.49,0-20.93,22.62-22.62,29.51-22.62,11.31,0,20.41,3.25,29.77,10.27l-10.14,13.26c-5.33-3.12-12.35-6.63-20.28-6.63-3.77,0-9.36,1.82-9.36,5.33,0,4.81,10.4,5.98,13.52,6.37,12.09,2.08,28.47,4.16,28.47,22.62,0,14.82-10.66,23.27-29.38,23.27-15.34,0-25.74-4.94-33.54-11.18Z"/>
      <path class="cls-1" d="M75.02,62.8c0-29.38,25.48-37.19,38.88-37.19,18.33,0,36.67,12.48,37.32,35.5,0,5.46-.39,8.97-.39,8.97h-56.43c2.34,11.7,15.6,13,19.5,13,10.79,0,16.12-5.85,18.33-8.32l15.08,8.71c-2.86,3.9-12.48,16.64-33.42,16.64-13.91,0-38.88-7.93-38.88-37.32ZM94.91,56.3h35.76c-.78-6.5-7.15-13.65-16.9-13.65-11.18,0-18.07,6.37-18.85,13.65Z"/>
      <path class="cls-1" d="M221.16,91.14c-2.99,4.03-11.57,8.71-21.71,8.71-22.62,0-35.89-16.77-35.89-37.32s13.26-37.32,35.89-37.32c10.4,0,18.07,4.16,21.71,8.97v-7.41h19.24v71.51h-19.24v-7.15ZM202.3,42.26c-12.35,0-19.63,8.58-19.63,20.28s7.67,20.15,19.63,20.15,19.63-7.67,19.63-20.15c0-11.83-7.54-20.28-19.63-20.28Z"/>
      <path class="cls-1" d="M259.77,0h19.5v98.29h-19.5V0Z"/>
      <path class="cls-1" d="M294.48,62.67c0-20.41,17.42-37.19,38.75-37.19s39.01,16.77,39.01,37.19-17.68,37.32-39.01,37.32-38.75-16.64-38.75-37.32ZM313.6,62.67c0,11.83,8.45,20.41,19.63,20.41s19.63-8.84,19.63-20.41-8.58-20.15-19.63-20.15-19.63,8.84-19.63,20.15Z"/>
      <path class="cls-1" d="M376.26,27.04h21.58l16.64,34.98,16.64-34.98h21.71l-38.36,74.37-38.23-74.37Z"/>
      <path class="cls-1" d="M456.87,62.8c0-29.38,25.48-37.19,38.88-37.19,18.33,0,36.67,12.48,37.32,35.5,0,5.46-.39,8.97-.39,8.97h-56.43c2.34,11.7,15.6,13,19.5,13,10.79,0,16.12-5.85,18.33-8.32l15.08,8.71c-2.86,3.9-12.48,16.64-33.42,16.64-13.91,0-38.88-7.93-38.88-37.32ZM476.76,56.3h35.75c-.78-6.5-7.15-13.65-16.9-13.65-11.18,0-18.07,6.37-18.85,13.65Z"/>
      <path class="cls-1" d="M567.9,66.7v31.59h-19.37V26.78h19.37v9.49c7.28-9.62,19.37-10.92,24.44-10.79v18.98c-4.68-.39-24.44.52-24.44,22.23Z"/>
    </g>
  </g>
</svg>